<?xml version="1.0" encoding="UTF-8"?>
<svg id="Layer_1" data-name="Layer 1" xmlns="http://www.w3.org/2000/svg" viewBox="0 0 950 950">
  <defs>
    <style>
      .cls-1, .cls-2 {
        fill: #4d4d4f;
      }

      .cls-3 {
        fill: #008b9a;
      }

      .cls-3, .cls-2, .cls-4 {
        fill-rule: evenodd;
      }

      .cls-4 {
        fill: #004784;
      }
    </style>
  </defs>
  <path class="cls-1" d="m449.07,732.11v-.96h-1.89c-.46,0-.69-.22-.69-.58s.23-.56.69-.56h1.89v-.96h-1.89c-.46,0-.69-.22-.69-.58s.23-.56.69-.56h1.89v-.96h-2.2c-.82,0-1.24.43-1.24,1.14,0,.46.19.82.54,1.11-.34.18-.54.51-.54.95,0,.49.26.78.54,1h-.48v.96h3.38Zm.06-6.96c0-.47-.17-.79-.43-1.02h.37v-.93h-1.96c-.45,0-.83.11-1.08.37-.24.24-.38.62-.38,1.14,0,.57.11.94.27,1.31l.73-.24c-.11-.31-.18-.57-.18-.93,0-.48.22-.73.62-.73h.06c-.08.24-.14.49-.14.83,0,.8.34,1.36,1.08,1.36h.01c.67,0,1.04-.52,1.04-1.16h0Zm-.66-.29c0,.31-.15.52-.41.52h-.01c-.3,0-.47-.25-.47-.66,0-.23.05-.45.13-.61h.17c.35,0,.59.3.59.75h0Zm.6-2.49v-.96h-1.89c-.46,0-.69-.23-.69-.6s.23-.58.69-.58h1.89v-.96h-2.19c-.78,0-1.26.42-1.26,1.15,0,.49.26.77.54.99h-.48v.96h3.38Zm.06-5.06c0-.49-.26-.77-.54-.99h.48v-.96h-3.38v.96h1.89c.45,0,.69.23.69.6s-.23.58-.69.58h-1.89v.96h2.19c.78,0,1.26-.42,1.26-1.15h0Zm0-3.77c0-.47-.17-.79-.43-1.02h.37v-.93h-1.96c-.45,0-.83.11-1.08.37-.24.24-.38.62-.38,1.14,0,.57.11.94.27,1.31l.73-.24c-.11-.31-.18-.57-.18-.94,0-.48.22-.73.62-.73h.06c-.08.24-.14.49-.14.83,0,.8.34,1.36,1.08,1.36h.01c.67,0,1.04-.52,1.04-1.16h0Zm-.66-.29c0,.31-.15.52-.41.52h-.01c-.3,0-.47-.25-.47-.66,0-.23.05-.45.13-.61h.17c.35,0,.59.3.59.75h0Zm.6-2.53v-.96h-4.61v.96h4.61Zm.06-4.9c0-.32-.08-.56-.2-.76h-.77c.08.14.12.3.12.47,0,.21-.11.31-.33.31h-1.45v-.8h-.82v.8h-.86v.96h.86v.4h.82v-.4h1.6c.78,0,1.02-.4,1.02-.99h0Zm-.06-1.48v-.96h-1.25c-.81,0-1.19-.39-1.19-1.03v-.05h-1c-.02.57.28.88.74,1.08h-.68v.96h3.38Zm.06-3.44c0-.47-.17-.79-.43-1.02h.37v-.93h-1.96c-.45,0-.83.11-1.08.37-.24.24-.38.62-.38,1.14,0,.57.11.94.27,1.31l.73-.24c-.11-.31-.18-.57-.18-.94,0-.48.22-.73.62-.73h.06c-.08.24-.14.49-.14.83,0,.8.34,1.36,1.08,1.36h.01c.67,0,1.04-.52,1.04-1.16h0Zm-.66-.29c0,.31-.15.52-.41.52h-.01c-.3,0-.47-.25-.47-.66,0-.23.05-.45.13-.61h.17c.35,0,.59.3.59.75h0Zm.68-4.09c0-.68-.26-1.05-.62-1.38l-.57.56c.22.23.36.45.36.78,0,.52-.42.86-.94.86h-.01c-.5,0-.92-.34-.92-.82,0-.34.15-.56.37-.77l-.63-.59c-.35.32-.57.71-.57,1.35,0,1.03.8,1.77,1.76,1.77h.01c.97,0,1.75-.74,1.75-1.76h0Zm-3.84-2.03v-1.01h-.85v1.01h.85Zm3.76-.03v-.96h-3.38v.96h3.38Zm0-1.86v-.96h-1.89c-.46,0-.69-.23-.69-.6s.23-.58.69-.58h1.89v-.96h-2.19c-.78,0-1.26.42-1.26,1.15,0,.49.26.77.54.99h-.48v.96h3.38Zm1.02-5.45c0-.66-.14-1.14-.46-1.46-.28-.28-.73-.43-1.33-.43h-2.62v.96h.44c-.28.26-.51.57-.51,1.09,0,.78.57,1.5,1.58,1.5h.01c1,0,1.58-.71,1.58-1.5,0-.51-.21-.82-.55-1.11h.16c.61,0,.92.31.92.97,0,.45-.11.8-.31,1.14l.72.33c.23-.43.35-.95.35-1.5h0Zm-2.1-.11c0,.47-.32.82-.78.82h-.01c-.46,0-.78-.35-.78-.82s.32-.83.78-.83h.01c.46,0,.78.36.78.83h0Zm1.14-6.54c0-.8-.62-1.54-1.75-1.54h-.01c-1.13,0-1.75.75-1.75,1.54,0,.5.23.82.55,1.05h-1.71v.96h4.61v-.96h-.44c.27-.23.51-.54.51-1.05h0Zm-.82.25c0,.45-.37.82-.94.82h-.01c-.56,0-.93-.37-.93-.82s.37-.83.93-.83h.01c.57,0,.94.38.94.83h0Zm1.78-3.15c0-.57-.26-.85-.95-1.11l-3.47-1.3v1l2.31.74-2.31.77v1.02l3.4-1.33c.17.08.22.17.22.34,0,.13-.06.28-.13.41l.69.32c.15-.25.23-.51.23-.85h0Zm-1.03-4.87v-.96h-1.89c-.46,0-.69-.22-.69-.58s.23-.56.69-.56h1.89v-.96h-1.89c-.46,0-.69-.22-.69-.58s.23-.56.69-.56h1.89v-.96h-2.2c-.82,0-1.24.43-1.24,1.14,0,.46.19.81.54,1.11-.34.18-.54.51-.54.95,0,.49.26.78.54,1h-.48v.96h3.38Zm.06-6.96c0-.47-.17-.79-.43-1.02h.37v-.93h-1.96c-.45,0-.83.11-1.08.37-.24.24-.38.62-.38,1.14,0,.57.11.94.27,1.31l.73-.24c-.11-.31-.18-.57-.18-.94,0-.48.22-.73.62-.73h.06c-.08.24-.14.49-.14.83,0,.8.34,1.36,1.08,1.36h.01c.67,0,1.04-.52,1.04-1.16h0Zm-.66-.29c0,.31-.15.52-.41.52h-.01c-.3,0-.47-.25-.47-.66,0-.23.05-.45.13-.61h.17c.35,0,.59.3.59.75h0Zm.6-2.53v-.96h-4.61v.96h4.61Zm0-1.86v-.96h-1.89c-.46,0-.69-.22-.69-.58s.23-.56.69-.56h1.89v-.96h-1.89c-.46,0-.69-.22-.69-.58s.23-.56.69-.56h1.89v-.96h-2.2c-.82,0-1.24.43-1.24,1.14,0,.46.19.81.54,1.11-.34.18-.54.51-.54.95,0,.49.26.78.54,1h-.48v.96h3.38Zm.08-7.66c0-1.05-.79-1.84-1.76-1.84h-.01c-.97,0-1.75.78-1.75,1.82s.79,1.84,1.76,1.84h.01c.97,0,1.75-.78,1.75-1.83h0Zm-.83-.01c0,.53-.44.89-.94.89h-.01c-.5,0-.92-.33-.92-.88s.44-.89.94-.89h.01c.5,0,.92.33.92.88h0Zm.82-3.71c0-.73-.34-1.3-1.09-1.3h-.01c-.62,0-.85.55-1,1.02-.13.37-.21.69-.4.69h-.01c-.13,0-.23-.12-.23-.35s.12-.58.32-.92l-.66-.37c-.25.37-.39.83-.39,1.26,0,.68.38,1.24,1.07,1.24h.01c.66,0,.88-.54,1.02-1.01.11-.37.18-.7.39-.7h.01c.15,0,.25.13.25.4,0,.32-.14.7-.4,1.07l.63.41c.35-.45.51-.98.51-1.45h0Z"/>
  <path class="cls-2" d="m378.97,688.25v7.41c-31.39-2.14-42.22,8.97-41.6,25.04.36,9.41,7.51,19.31,21.64,19.31,8.1,0,15.28-3.7,20.46-10.02v4.8c0,2.29,1.87,4.15,4.15,4.15h9.39v-47.4c0-17.49-9.78-25.17-27.82-25.17-8.56,0-14.77,2.31-20.22,4.97l-1.54,9.09c4.83-3.7,10.88-6.62,19.12-6.62,10.16,0,16.42,3.85,16.42,14.45h0Zm0,14.07v18.37c-2.82,7.05-9.75,9.41-14.94,9.41-6.18,0-11.66-4.01-12.37-11.92-.4-4.45.97-9.24,5.15-12.52,4.08-3.2,11.28-5.23,22.15-3.34h0Zm-161.97,9.54v-38.64c0-2.9-2.37-5.28-5.28-5.28h-13.47c2.64,1.01,4.75,3.26,4.7,7.04v38.2c0,15.03,4.3,26.66,23.11,26.66,6.97,0,15.43-3.54,19.06-9.8v4.73c0,2.29,1.87,4.15,4.15,4.15h9.5v-70.98h-14.05v47.12c0,9.11-3.78,12.46-8.5,14.48-5.8,2.48-12.69,1.92-16.29-2.36-2.97-3.54-2.94-8.7-2.94-15.33h0Zm-65.65-43.91c2.64,1.01,4.75,3.26,4.7,7.04v63.94h14.05v-45.24c0-9.11,4.18-14.34,8.89-16.36,3.43-1.47,11-3.02,16.08.18l-1.54-9.09c-5.45-2.15-13.48-2.09-20.14,3.28-1.27,1.03-2.36,2.37-3.29,3.98v-3.59c0-2.29-1.87-4.15-4.15-4.15h-14.59Zm-20.27,20.3v7.41c-31.39-2.14-42.22,8.97-41.6,25.04.36,9.41,7.51,19.31,21.64,19.31,8.1,0,15.28-3.7,20.46-10.02v4.8c0,2.29,1.87,4.15,4.15,4.15h9.39v-47.4c0-17.49-9.78-25.17-27.82-25.17-8.56,0-14.77,2.31-20.22,4.97l-1.54,9.09c4.83-3.7,10.88-6.62,19.12-6.62,10.16,0,16.42,3.85,16.42,14.45h0Zm0,14.07v18.37c-2.82,7.05-9.75,9.41-14.94,9.41-6.18,0-11.66-4.01-12.37-11.92-.4-4.45.97-9.24,5.15-12.52,4.08-3.2,11.28-5.23,22.15-3.34h0Zm190.49-59h-13.14c2.64,1.01,4.76,3.26,4.7,7.04v24.1c-2.94-3.76-8.16-8.04-17.05-8.04-13.48,0-27.95,11-27.95,37.01,0,20.61,8.65,36.46,26.67,36.46,6.52,0,13.56-2.86,18.83-8.02v2.91c0,2.29,1.87,4.15,4.15,4.15h9.39v-90.16c0-2.59-2.75-5.45-5.61-5.45h0Zm-8.44,49.82v31.07c-2.96,4.26-7.41,7.23-12.78,7.41-15,.5-16.94-18.58-16.94-28.82,0-20.24,5.67-28.54,16.65-28.04,11.31.51,13.06,9.63,13.06,18.38h0Zm-239.4-47.74c-4.75-1.61-10.87-3.1-18.45-3.1-26.9,0-46.67,17.15-46.67,49.1,0,29.74,14.53,48.99,45.05,48.99,9.74,0,18.18-1.52,25.48-4.09v-49.65h-30.04l-1.2,7.72c2.32-.67,4.77-.86,7.15-.76h8.71v37.44c-2.48.7-5.81,1.31-9.81,1.14-18.25-.78-28.9-10.82-28.9-40.65s14.18-41.03,31.7-41.03c6.5,0,14.24,1.43,19.74,4.15l-2.76-9.27h0Zm791.74,93.54h10.18v-66.61c0-2.41-1.97-4.37-4.37-4.37h-14.37c2.64,1.01,4.75,3.26,4.7,7.04v60.08c0,2.13,1.74,3.86,3.86,3.86h0Zm60.97-50.69v7.41c-31.39-2.14-42.22,8.97-41.6,25.04.36,9.41,7.51,19.31,21.64,19.31,8.1,0,15.28-3.7,20.46-10.02v4.8c0,2.29,1.87,4.15,4.15,4.15h9.39v-47.4c0-17.49-9.78-25.17-27.82-25.17-8.56,0-14.77,2.31-20.22,4.97l-1.54,9.09c4.83-3.7,10.88-6.62,19.12-6.62,10.16,0,16.42,3.85,16.42,14.45h0Zm0,14.07v18.37c-2.82,7.05-9.75,9.41-14.94,9.41-6.18,0-11.66-4.01-12.37-11.92-.4-4.45.97-9.24,5.15-12.52,4.08-3.2,11.28-5.23,22.15-3.34h0Zm-121.61,24.6l2.12,8.52c6.42,3.07,13.93,4.57,19.71,4.57,15.31,0,26.42-8.86,26.42-21.52,0-9.86-9.08-16.63-19.31-20.38-9.22-3.37-14.7-7.25-13.6-14.39,1.16-7.59,8.15-9.88,13.8-9.56,7.47.42,11.9,2.69,15.49,5.37l-2.23-8.32c-5.39-2.64-10.42-3.72-14.89-3.95-15.39-.8-25.91,6.61-25.91,19.26,0,11.5,8.18,16.81,17.47,20.49,9.6,3.8,16.49,7.65,15.35,15.62-1.16,8.14-7.1,10.59-14.23,10.65-8.47.08-16.23-3.71-20.21-6.38h0Zm-169.47,12.83c-15.92,0-30.78-7.19-30.78-36.32s16.54-37.01,30.78-37c14.25,0,30.78,7.88,30.78,37s-14.86,36.32-30.78,36.32h0Zm.34-7.07c10.42-.19,15.62-8.6,15.62-29.28s-5.2-29.09-15.62-29.28c-10.42-.19-16.31,8.15-16.31,29.28s5.89,29.47,16.31,29.28h0Zm82.27.98c0,2.9,2.37,5.28,5.28,5.28h8.77v-45.24c0-15.03-4.3-26.66-23.11-26.66-6.97,0-15.43,3.54-19.06,9.8v-4.73c0-2.29-1.87-4.15-4.15-4.15h-14.2c2.64,1.01,4.76,3.26,4.7,7.04v63.94h14.05v-47.12c0-9.11,3.78-12.46,8.5-14.48,5.8-2.48,12.69-1.92,16.29,2.36,2.97,3.54,2.95,8.7,2.95,15.33v38.63h0Zm-206.47,0c0,2.9,2.37,5.28,5.28,5.28h8.77v-45.24c0-15.03-4.3-26.66-23.11-26.66-6.97,0-15.43,3.54-19.06,9.8v-4.73c0-2.29-1.87-4.15-4.15-4.15h-14.2c2.64,1.01,4.75,3.26,4.7,7.04v63.94h14.04v-47.12c0-9.11,3.78-12.46,8.5-14.48,5.8-2.48,12.69-1.92,16.29,2.36,2.97,3.54,2.95,8.7,2.95,15.33v38.63h0Zm77.57-90.33h-13.14c2.64,1.01,4.75,3.26,4.7,7.04v24.1c-2.94-3.76-8.16-8.04-17.05-8.04-13.48,0-27.95,11-27.95,37.01,0,20.61,8.66,36.46,26.67,36.46,6.52,0,13.56-2.86,18.83-8.02v2.91c0,2.29,1.87,4.15,4.15,4.15h9.39v-90.16c0-2.59-2.75-5.45-5.61-5.45h0Zm-8.44,49.82v31.07c-2.96,4.26-7.41,7.23-12.78,7.41-15,.5-16.94-18.58-16.94-28.82,0-20.24,5.67-28.54,16.65-28.04,11.31.51,13.06,9.63,13.06,18.38h0Zm-130.43-49.82h-15.47c2.64,1.01,4.75,3.26,4.7,7.04v84.42c0,2.29,1.87,4.15,4.15,4.15h11.31v-90.91c0-2.59-2.12-4.7-4.7-4.7h0Zm306.46,60.27l-.02-14.73c-.01-9.13,5.88-15.62,15.16-15.62,6.7,0,12.82.97,12.49,14.31-.24,9.98-5.86,19.15-27.64,16.04h0Zm-.02,6.79v7.38c0,10.59,6.26,14.79,16.41,14.79,8.24,0,18.37-4.36,22.68-7.89l-1.54,9.09c-7.11,3.26-15.22,6.26-23.78,6.26-18.04,0-27.82-7.69-27.82-25.17v-20.8c0-21.91,15-28.39,34-27.68,14.12.53,20.89,9.89,21.15,19.31.46,16.03-12.32,28.07-41.11,24.72h0Z"/>
  <path class="cls-3" d="m257.96,459.21h-40.44l-4.54-7.89h51.15s95.93-.2,140.86,14.63c30.92,10.21,62.36,27.97,91.4,48.94,29.03,20.97,69.89,50.36,69.89,50.36-10.7,8.56-18.82,17.2-33.69,17.2-11.83,0-23.66-6.45-23.66-6.45l-101.7-73.34c-27.45-19.79-58.9-33.72-92.56-39.39-18.77-3.17-37.72-3.25-56.71-4.06h0Zm-74.95-60h46.72c55.78-.4,85.99,1.99,131.13,18.57,41.29,15.17,76.81,40.22,112.24,65.61l75.44,54.09s12.91,11.29,25.81,11.29c15.69,0,26.41-8.6,38.71-16.67l-101.08-74.01s-43.77-32.78-97.53-50.51c-59.61-19.67-158.39-16.25-158.39-16.25h-77.6l4.54,7.89h0Zm-39.73-69.08h96.43s119.62.16,166.78,11.61c38.55,9.35,89.1,35.34,116.38,56.13,27.28,20.78,136.23,99.65,136.23,99.65,0,0-13.61,15.76-35.84,15.76-16.49,0-22.58-6.22-27.24-8.6l-123.77-89.07c-34.41-24.75-70.08-45.77-107.94-58.98-37.85-13.21-77.89-18.62-121.01-18.62h-95.49l-4.53-7.88h0Z"/>
  <path class="cls-4" d="m259.26,270.15c95.32,0,153.59,10.38,198.22,27.31,34.09,12.93,62.83,31.25,91.95,52.16l157.9,113.37s-6.83,6.83-15.93,11.88c-15.5,8.61-36.37,5-52.89-7.59l-146.97-104.42c-44.64-31.71-88.06-58.23-141.91-73.02-39.47-10.83-115.45-11.81-115.45-11.81h-120.85l-4.54-7.89h150.47Zm-181.03-53.14h145.98s81.41,3.3,120.07,11.89c60.92,14.11,114.22,42.68,167.48,80.68l173.46,123.79c14.37,10.65,33.32,17.52,48.67,9.1,6.75-3.7,12.19-8.4,17.89-13.4l-199.06-143.32c-32.89-23.67-73.1-40.68-106.23-50.7-45.77-13.84-97.9-25.35-192.93-25.35H74.02l4.21,7.31h0Zm628.26,128.09c-10.99-.19-18.65-.95-28.63-3.34-16.46-3.94-23.13-16.37-23.13-16.37-6,12.14,10.24,26.74,18.1,32.41l79.49,56.62c11.96,6.89,18.87,1.45,18.87,1.45,0,0,20.68-10.89,31.57-13.43,10.89-2.54,42.1-3.64,46.09-2.91,3.99.73,19.23,10.53,19.23,10.53,4.73-35.2-18.14-38.48-32.66-40.65-14.52-2.18-34.48-3.64-34.48-3.64l-26.5,7.26-15.61-11.97s31.58,2.53,39.92,2.91c8.35.36,6.18-3.27,2.18-11.26-3.99-7.99-13.07-7.62-13.07-7.62h-81.39Z"/>
</svg>