<?xml version="1.0" encoding="UTF-8"?>
<svg id="Layer_1" data-name="Layer 1" xmlns="http://www.w3.org/2000/svg" viewBox="0 0 950 950">
  <defs>
    <style>
      .cls-1 {
        fill: #e31113;
      }

      .cls-1, .cls-2 {
        fill-rule: evenodd;
      }

      .cls-2 {
        fill: #fdf3f4;
      }
    </style>
  </defs>
  <path class="cls-2" d="m597.01,415.3l.07-7.17,9.5-.35c-1.15-4.48-6.56-8.78-12.02-4.83-4.64,3.36-4.02,10.84,2.46,12.35Z"/>
  <path class="cls-1" d="m553.08,488.38c-11.24-13.66-23.94-31.13-28.82-65.13,5.34-1.26,7.89-.12,7.11-1.34-3.15-4.95-7.25-10.83-4.77-18.4,5.46.42,15.45-1.99,22.02-1.37-2.35-4.26-2.5-9.34-.09-12.52,11.07,1.45,21.24-1.73,30.83.02-.08-3.63-.33-7.95,3.55-9.83,4.89,5.92,21.38,5.34,26.11,12.81,1.21-2.02,4.39-6.25,9.14-5.96,6.42,13.71,16.74,16.34,23.52,19.31,5.16,2.15,2.1,5.83,2.59,8.68,5.49,7.15,19.72,4.23,21.57,6.07,1.72,1.71-.24,5.11-.26,5.5,1.25,10.08-4.02,15.02-6.99,17.82,0-2.11-1.31-10.39-10.62-7.77-6.84,1.92-13.49,10.91-9.7,20.01,3.97,8.59,11.92,4.68,13.46,3.15.95-1.37,1.73-1.14,1.89-.28.69,3.89-1.31,13-7.56,13.71-4.13-.56-6.75-1.71-10.99-1.48-2.22,25.92,14.03,19.58,13.35,28.2-.34,4.31-12.29,2.7-1.34,17.18,3.3,4.28,2.15,7.51-4.19,7.04-.39,12.56-16.27,45.44-55.43,46.31.79,10.4,2.14,19.9-4.86,24.66-2.72,1.74-8.73,2.28-12.21.74,9.85-8.63,9.38-24.08,8.7-34.05-1.89-.29-3.73-.72-5.52-1.27-.72,7.37-1.7,33-19.16,39.19-4.11,1.45-10.37.32-13.02-3.57,14.87-4.9,25.64-24.4,28.17-37.08-1.81-.78-3.56-1.68-5.23-2.71-7.01,19.39-22.19,36.82-37.47,38.03-5.48-.05-12.12-2.7-14.17-8.42,19.21-.3,40.07-19.1,47.38-32.63-1.63-1.33-3.16-2.78-4.56-4.34-13.98,17.53-33.28,29.86-51.29,29.47-10.06-.22-17.62-3.44-19.98-16.01,26.66,5.6,54.69-5.76,68.32-17.15-1.43-2.03-2.68-4.21-3.73-6.5-25.3,15.09-57.9,18.26-75.48,10.45-9.4-4.17-14.84-14.67-12.38-27.1,16.98,14.62,60.07,18.46,85.85,11.21-.55-1.91-.96-3.88-1.22-5.89-39.4,1.53-75.78-7.85-88.88-24.71-8.12-10.44-6.87-20.72.93-30.67,18.39,29.21,58.91,43.9,87.63,49.18.05-2.07.26-4.1.61-6.07-30.03-7.5-81.3-42.15-88.55-72.47-2.92-14.49,1.65-28.85,16.44-31.9,3.63,38,36.24,77.34,73.43,99.11.7-2.16,1.57-4.23,2.61-6.21-52.04-33.6-76.76-98.61-62.06-132.98,5.02-11.74,11.05-15.86,28.35-13.05-16.69,68.51,12.82,116.39,37.56,140.04,7.32-9.43,18.77-15.5,31.63-15.5,22.11,0,40.03,17.92,40.03,40.03s-17.2,39.29-38.68,40c.21,1.93.38,3.92.58,5.85,25.04-1.09,44.79-21.74,44.79-47.05,0-35.27-45.45-62.6-78.93-32.34h0Zm54.55-80.12c-4.55-11.21-13.45-5.89-14.47-4.69-2.05,2.43-3.4,11.13,4.66,12.13-.72-4.7-.32-7.56.27-8.23.99-1.12,3.76-.73,9.54.79h0Zm25.74,8.13c.59,4.68,4.67,7.89,6.03,7.86,1.14-2.02,1.32-4.74,3.74-7.96-2.79-.35-6.03.4-9.77.1Z"/>
  <path class="cls-1" d="m36.71,540.61h55.6c6.33,0,8.5-.62,10.34-4.95l9.12-23.74c3.26-9.13-1.73-9.5-7.88-9.5h-36.81c-8.32,0-11.82-.46-5.8-17.87l20.01-57.86c2.38-6.89-.49-6.89-3.58-6.89h-34.87c-4.29,0-4.84-.07-6.6,5.04l-24.91,72.03c-3.81,12.46-12.79,43.74,25.38,43.74h0Zm86.86,0h32.52c4.06,0,4.76,0,6.38-4.67l24.12-77.73c1.54-4.99-1.19-4.99-4.12-4.99h-33.17c-4.08,0-4.61-.05-5.76,3.65l-23.7,76.4c-1.53,4.44-1.84,7.34,3.73,7.34h0Zm726.22,0h32.52c4.06,0,4.76,0,6.38-4.67l9.49-30.6c3.95-12.75,7.81-22.87,23.84-18.32l20.36-24.89c-7.68-16.82-40.82-8.03-44.51-7.8-7.02.42-14.39.24-22.36-1.1-4.08,0-4.61-.05-5.75,3.65l-23.7,76.4c-1.53,4.44-1.84,7.34,3.73,7.34h0Zm-57.18,0c-5.56,0-5.26-2.9-3.73-7.34l23.7-76.4c1.15-3.7,1.67-3.65,5.76-3.65h33.17c2.93,0,5.67,0,4.12,4.99l-24.12,77.73c-1.62,4.67-2.32,4.67-6.38,4.67h-32.52Zm45.25-129.21c34.7-7.21,38.08,25.04,6.76,32.51-33.97,8.09-38.88-25.84-6.76-32.51h0Zm-106.65,104.72c-8.1,2.75-14.83,3.7-19.17,1.87-13.23-5.59.23-45.02,21.55-47.53,11.46-1.35,13.82,5.06,11.13,14.01l-15.29,50.9c-.92,3.49.45,5.18,3.25,5.24h34.69c3.77-.02,3.97-.81,4.77-3.37l24.59-78.1c.77-2.83,2.46-6.2-2.58-5.9-26.67,1.56-34.26-11.77-65.77-7.15-46.89,8.94-72.51,71.71-46.03,90.99,18.54,13.5,44.1-4.43,48.86-20.95h0Zm-428.08,24.49h32.52c4.06,0,4.76,0,6.38-4.67l12.21-39.04c2.05-8.13,4.97-11.67,19.71-10.16,6.21.64,8.39,2.08,5.56,11.46l-11.05,36.64c-1.08,3.78.55,5.77,5.76,5.77h31.27c3.63,0,4.45-1.07,6.46-7.54l10.36-33.32c5.08-16.33,3.3-28.14-3.09-35.67-20.18-23.76-64.71-9.96-67.99-9.76-7.02.42-14.39.24-22.36-1.1-4.08,0-4.61-.05-5.75,3.65l-23.7,76.4c-1.53,4.44-1.84,7.34,3.73,7.34h0Zm-42.94-41.51c-2.81,6.02-11.61,12.26-20.34,12.96-12.21.97-20.63-6.66-15.94-16.8,9.39-20.32,45.57-16.09,36.28,3.85h0Zm-11.38-47.62c30.9-3.12,62.58,16.79,48.61,49.41-15.12,35.96-74.98,55.32-103.26,30.87-28.6-24.72,1.2-74.89,54.66-80.28h0Zm-80.26-40.08c-32.12,6.67-27.22,40.6,6.76,32.51,31.32-7.46,27.94-39.72-6.76-32.51Z"/>
</svg>