<?xml version="1.0" encoding="UTF-8"?>
<svg id="Layer_1" data-name="Layer 1" xmlns="http://www.w3.org/2000/svg" viewBox="0 0 950 950">
  <defs>
    <style>
      .cls-1 {
        fill: #fe0f1c;
      }

      .cls-1, .cls-2, .cls-3 {
        fill-rule: evenodd;
      }

      .cls-4, .cls-3 {
        fill: #100d5c;
      }

      .cls-2 {
        fill: #f9faf9;
      }
    </style>
  </defs>
  <path class="cls-4" d="m462.17,559.91c1.3-17.52,2.61-35.03,3.9-52.55,1.1-14.81,2.19-29.62,3.29-44.43.86-11.58,1.73-23.17,2.62-35.02.98-.05,1.88-.15,2.77-.15,12.01,0,24.01.05,36.02-.06,2.06-.02,2.93.7,3.71,2.53,9.24,21.78,18.57,43.53,27.88,65.29.37.85.76,1.69,1.34,2.98.55-1.19.97-2.05,1.34-2.92,9.37-21.91,18.75-43.82,28.1-65.74.53-1.24,1.03-2.13,2.69-2.12,12.69.07,25.37.04,38.06.05.41,0,.82.09,1.51.17.31,3.74.65,7.43.93,11.12,2.38,31.9,4.77,63.8,7.12,95.71.62,8.38,1.13,16.76,1.68,25.14h-36.79c-1.11-19.54-2.22-39.08-3.33-58.62-.21-3.69-.44-7.38-.66-11.08-.74.58-1.09,1.22-1.39,1.89-7.02,16.06-14.06,32.12-21.05,48.2-2.83,6.51-5.55,13.07-8.31,19.61h-19.93c-.18-.72-.27-1.48-.57-2.15-9.57-21.98-19.17-43.95-28.77-65.92-.18-.41-.46-.78-1.07-1.8-1.47,23.77-2.9,46.82-4.33,69.87h-36.79Z"/>
  <path class="cls-4" d="m165.32,559.91v-131.97c.92-.06,1.73-.17,2.54-.17,5.96-.01,11.92-.11,17.88.07,1.36.04,3.01.68,4,1.6,23.92,22.33,47.76,44.74,71.62,67.13.24.23.52.42,1.3,1.06-.28-23.45-.56-46.42-.83-69.63h36.81c0,1.11,0,2.19,0,3.27,0,41.78,0,83.56,0,125.34,0,1.1.03,2.21.04,3.31h-22.99c-.46-.58-.86-1.23-1.39-1.74-21.47-20.18-42.95-40.34-64.43-60.5-2.67-2.51-5.38-4.98-8.53-7.89.26,23.84.52,46.99.78,70.13h-36.79Z"/>
  <path class="cls-4" d="m657.85,559.91c11.1-26.69,22.21-53.38,33.31-80.06,6.9-16.59,13.84-33.17,20.66-49.8.74-1.81,1.67-2.34,3.56-2.33,9.7.09,19.41.11,29.11-.01,2.07-.03,2.95.7,3.7,2.53,17.66,42.78,35.39,85.54,53.1,128.3.19.47.43.92.64,1.38h-39.85c-.07-.49-.05-1.01-.21-1.46-1.86-5-3.81-9.96-5.58-14.98-.55-1.55-1.49-1.76-2.89-1.75-15.63.03-31.26.05-46.89-.03-1.89,0-2.65.69-3.26,2.35-1.93,5.32-4.02,10.59-6.06,15.88-13.11,0-26.23,0-39.34,0Zm80.14-40.36c.26-.2.51-.4.77-.6-.35-.96-.54-2.03-1.08-2.87-1.18-1.86-2.58-3.58-3.79-5.42-.43-.65-.85-1.52-.78-2.25.27-2.69.74-5.35,1.17-8.25,5.42,1.42,10.83,2.83,16.23,4.25.22-.32.44-.63.66-.95-1.16-1.44-2.13-3.11-3.52-4.28-3.76-3.18-7.61-6.26-11.6-9.15-1.72-1.25-1.84-2.64-1.94-4.52-.23-4.28-.77-8.55-1.43-12.79-.14-.87-1.37-1.57-2.09-2.36-.82.77-1.79,1.43-2.42,2.33-.51.73-.76,1.72-.86,2.63-.38,3.53-.78,7.07-.92,10.61-.07,1.66-.45,2.77-1.91,3.76-4.13,2.83-8.19,5.78-12.13,8.87-1.34,1.06-2.23,2.7-3.32,4.07l.62.84c5.4-1.16,10.81-2.33,16.23-3.5.9,5.3,2.1,10.39-2.75,14.37-.75.61-1.22,1.63-1.63,2.55-.26.59-.16,1.33-.26,2.55,2.61-1.18,4.72-2.02,6.71-3.08,1.34-.71,2.43-.73,3.77.03,2.02,1.16,4.17,2.11,6.26,3.15Z"/>
  <path class="cls-4" d="m310.42,559.91c4.27-10.15,8.58-20.29,12.81-30.46,13.71-32.95,27.41-65.9,41.03-98.88.88-2.13,1.91-2.91,4.27-2.87,9.62.15,19.23.11,28.85.02,1.81-.02,2.68.57,3.37,2.25,17.88,43.33,35.82,86.63,53.75,129.94h-39.34c-2.04-5.38-4.13-10.73-6.09-16.14-.54-1.49-1.28-2.09-2.92-2.08-15.79.06-31.59.02-47.38.08-.78,0-2.03.47-2.25,1.03-2.18,5.67-4.18,11.4-6.24,17.11h-39.85Zm92.7-55.49c.23-.27.46-.53.69-.8-1.1-1.46-1.98-3.17-3.34-4.33-3.55-3.03-7.23-5.93-11-8.67-1.9-1.38-2.71-2.85-2.65-5.26.08-3.28-.24-6.6-.67-9.86-.27-2.03-.56-4.93-3.02-4.96-2.49-.02-2.84,2.93-3.15,4.92-.56,3.59-.79,7.24-.98,10.87-.08,1.48-.51,2.43-1.78,3.32-4.12,2.85-8.14,5.85-12.15,8.85-1.54,1.15-2.92,2.48-2.86,5.03,5.62-1.22,11.03-2.4,16.18-3.52,1.87,5.91,1.43,11.13-3.31,15.37-.54.48-.87,1.27-1.09,1.98-.15.47.06,1.05.15,1.96,2-.89,3.77-1.47,5.32-2.42,2.22-1.37,4.16-1.28,6.31.15,1.54,1.02,3.32,1.69,5,2.51.21-.2.41-.4.62-.6-.34-.98-.51-2.06-1.05-2.92-1.18-1.86-2.56-3.59-3.81-5.41-.37-.53-.89-1.2-.83-1.75.32-2.83.81-5.64,1.29-8.73,5.46,1.44,10.8,2.85,16.15,4.26Z"/>
  <path class="cls-4" d="m868.86,559.91c.01-33.63.03-67.25.04-100.88,0-1.09,0-2.19,0-3.56.93-.07,1.74-.18,2.54-.19,10.56-.01,21.12.06,31.67-.06,2.28-.03,2.98.73,2.94,2.89-.05,2.43.2,4.87.35,7.95,4.75-4.43,9.6-7.7,15.23-9.71,5.64-2.02,11.41-3.16,17.68-2.9-.8,11.24-1.58,22.28-2.35,33.13-4.09.68-7.97,1.14-11.75,2.01-4.45,1.02-8.41,3.16-11.88,6.17-4.09,3.55-6.14,8.01-6.13,13.44.01,17.24,0,34.48-.02,51.71h-38.32Z"/>
  <path class="cls-4" d="m811.64,559.91v-104.46h38.18c0,1.25,0,2.32,0,3.4,0,32.59,0,65.17,0,97.76,0,1.1.09,2.2.14,3.3h-38.32Z"/>
  <path class="cls-4" d="m830.87,446.43c-16.44.26-26.35-15.23-19.7-30.06,3.6-8.02,11.89-12.2,22.02-11.52,11.45.77,19.7,9.98,19.27,21.53-.43,11.83-9.28,20.05-21.6,20.05Z"/>
  <path class="cls-1" d="m83.68,559.18l3.1-2.48c3.51-2.9,6-4.96,9.31-8.07.41-.41.83-.83,1.45-1.45,1.24-1.24,3.31-3.1,4.34-4.34,8.07-8.06,14.27-16.34,20.27-26.06,1.03-1.65,3.1-4.96,4.14-6.82l.41-.41v.41l15.1-82.1c0-1.86-1.03-1.65-2.69-1.65h-24.82c-5.79,0-5.17-.83-8.48,3.72-6,8.07-11.79,15.72-17.58,23.78-2.27,3.1-4.76,6.2-7.03,9.51-1.03,1.45-2.27,3.1-3.52,4.76-1.24,1.65-2.48,3.31-3.52,4.76l-7.03,9.51c-2.27,3.1-4.76,6.41-7.03,9.51-4.55,6.41-9.51,12.61-14.06,19.03-7.24,9.93-13.65,18.2-21.3,28.54-2.27,3.1-4.55,6.2-7.03,9.51-.62.83-7.03,9.31-7.03,9.51l73,.41v.41Z"/>
  <path class="cls-3" d="m83.68,559.18c2.69.21,8.69,0,11.58,0h22.13l9.1-49.22v-.41l-.41.41c-.83,1.86-3.1,5.17-4.14,6.82-6,9.51-12.2,17.99-20.27,26.06-1.24,1.24-3.1,3.1-4.34,4.34-.62.41-1.03,1.03-1.45,1.45-3.31,3.1-5.79,5.17-9.31,8.07l-3.1,2.48h.21Z"/>
  <path class="cls-2" d="m107.67,484.94c-.83-.41-1.45-2.07-2.07-2.9l-6-8.69c-.41.21-4.55,5.58-5.38,6.41-.83.83-.62.83-.21,2.07l2.27,6.62c1.03,2.89,2.07,6,3.1,8.69.41,1.03,2.89,8.27,3.1,8.69.21-.21,2.89-3.52,3.31-3.93s.21-.62,0-1.24c-1.24-2.89-2.48-6.41-3.52-9.51-.41-1.03-2.07-4.76-1.86-5.58.41,0,.41.21.62.62l5.79,8.48c2.48,3.93,1.86,4.14,5.17-.21.21-.21.83-1.03.83-1.24.41-.62-.83-6-1.03-7.03-.41-1.86-2.69-12.41-2.48-13.86,1.03,1.03,4.34,10.13,5.17,12.41.21.62,1.45,4.14,1.86,4.14s.83-.83,1.24-1.24l2.27-2.69c.62-.62.83-.62.41-1.65-3.1-7.44-6-14.68-8.89-22.33-.21-.62-.41-1.65-1.03-1.45-.41,0-1.03,1.03-1.24,1.24l-3.1,3.93c-.41.41-.62.83-1.03,1.45-.62.83-.41.83-.21,1.86.41,2.69.83,5.58,1.45,8.27l1.45,8.27v.41Z"/>
  <path class="cls-2" d="m75.62,526.5c-.62,0-1.45-1.03-2.07-1.86-.62-.62-1.24-1.45-1.86-2.07-3.1-3.1-6-6.41-9.51-2.27-.62.83-1.03,1.65-1.65,2.27-.41.41-.83.62-.62,1.24,0,.41.41,1.03.62,1.45,1.65,3.93,2.9,7.44,4.34,11.37.62,1.86,1.45,3.72,2.07,5.79.83,2.07,1.24,3.93,1.86,6,.62-.21,1.45-1.45,1.86-1.86,2.07-2.69,2.48-2.27,1.65-4.55l-3.93-10.75c-.21-.83-.83-2.07-1.03-2.9.62,0,.83.41,1.45,1.03,1.24,1.24,2.69,2.27,3.93,3.31,1.03.83,1.86,1.45,2.69,2.27,2.9,2.27,2.27,3.1,3.93,1.24.41-.41.62-.83,1.03-1.24.62-.83,1.24-1.65,2.07-2.69,1.24-1.45,1.24-.83.21-3.31-2.69-6.62-4.96-14.27-7.65-20.89-1.24-3.1-.41-3.1-3.93,1.24-1.45,1.65-1.03,1.03-.41,3.31.41,1.03,5.17,13.24,5.17,13.86h-.21Z"/>
  <path class="cls-2" d="m83.68,529.4l4.55-5.58c.41-.41.21-1.03,0-1.65l-.83-7.24c-.21-1.03.21-1.03,1.45-2.48.62-.62,3.31-4.14,3.72-4.34.41.21.62.83,1.03,1.24s.83.83,1.03,1.24c.21.41.62.83,1.03,1.24.21.41.62.83,1.03,1.24.21-.21,4.76-5.38,4.76-5.79l-15.1-17.16c-.62-.21-1.24.62-1.45,1.03l-3.31,4.14c-.62.83-.62.41-.62,1.86.21,1.65.21,3.1.41,4.76.21,3.1.41,6.2.62,9.31.21,4.34.62,9.51,1.03,13.86l.41,4.34h.21Z"/>
  <path class="cls-1" d="m86.37,507.27l3.31-3.52c-.21-.41-1.65-2.07-1.86-2.48-.41-.41-1.65-2.07-2.07-2.28l.62,8.27Z"/>
</svg>