<?xml version="1.0" encoding="UTF-8"?>
<svg id="Layer_1" data-name="Layer 1" xmlns="http://www.w3.org/2000/svg" viewBox="0 0 950 950">
  <defs>
    <style>
      .cls-1 {
        fill: #006cb7;
        stroke: #006cb7;
      }

      .cls-1, .cls-2, .cls-3 {
        fill-rule: evenodd;
        stroke-miterlimit: 22.93;
        stroke-width: .57px;
      }

      .cls-4 {
        fill: #003764;
      }

      .cls-2 {
        fill: #ed1b2f;
        stroke: #ed1b2f;
      }

      .cls-3 {
        fill: #adc32b;
        stroke: #adc32b;
      }
    </style>
  </defs>
  <path class="cls-4" d="m406.59,459.49c-4.21-3.89-10-5.87-17.2-5.87h-41.86v78.34h11.86v-32.9h31.14c6.75,0,12.24-2.2,16.32-6.55,4.07-4.33,6.13-10.03,6.13-16.95s-2.15-12.14-6.39-16.07Zm-17.78,27.64h-29.42v-21.71h29.87c3.67,0,6.52.96,8.48,2.86,1.97,1.91,2.93,4.56,2.93,8.1s-.95,6.24-2.9,8.03c-1.96,1.8-4.97,2.72-8.96,2.72Z"/>
  <polygon class="cls-4" points="485.53 520.16 485.53 531.96 424.28 531.96 424.28 453.62 482.66 453.62 482.66 465.42 436.14 465.42 436.14 484.34 464.27 484.34 464.27 496.13 436.14 496.13 436.14 520.16 485.53 520.16"/>
  <polygon class="cls-4" points="553.18 520.16 553.18 531.96 495.43 531.96 495.43 453.62 507.29 453.62 507.29 520.16 553.18 520.16"/>
  <rect class="cls-4" x="560.72" y="453.22" width="12" height="78.74"/>
  <polygon class="cls-4" points="651.43 453.62 651.43 465.42 621.84 465.42 621.84 531.96 609.91 531.96 609.91 465.42 580.38 465.42 580.38 453.62 651.43 453.62"/>
  <path class="cls-4" d="m678.61,453.62h-9.28l-35.87,78.34h12.82l9.29-20.23h36.82l9.54,20.23h12.95l-36.27-78.34Zm-17.57,46.18l12.94-28,13.05,28h-25.99Z"/>
  <path class="cls-4" d="m798.63,453.62h-9.27l-35.87,78.34h12.81l9.3-20.23h36.81l9.55,20.23h12.94l-36.27-78.34Zm-17.57,46.18l12.95-28,13.05,28h-26Z"/>
  <rect class="cls-4" x="841.68" y="453.22" width="12" height="78.74"/>
  <path class="cls-4" d="m920.83,498.42c4.44-1.26,8.13-3.72,10.98-7.35,3.26-4.14,4.92-9.18,4.92-14.97,0-6.95-2.14-12.5-6.35-16.5-4.18-3.97-9.99-5.98-17.25-5.98h-41.85v78.34h11.86v-32.9h24.72l17.57,32.9h13.23l-17.83-33.54Zm-37.69-33h29.87c3.67,0,6.52.96,8.48,2.86,1.97,1.91,2.93,4.56,2.93,8.1s-.95,6.24-2.9,8.03c-1.96,1.8-4.97,2.72-8.96,2.72h-29.42v-21.71Z"/>
  <path class="cls-2" d="m7.74,348.99c82.99-7.72,140.5-8.31,220.76,15.85,36.71,27.53,47.76,67.34,47.46,74.32-48.04-18.06-69.42-31.26-216.91-26.39-15.3-17.71-38.92-44.72-51.31-63.78Z"/>
  <path class="cls-1" d="m245.37,505.65l41.41,20.67c-16.53,29.99-44.95,56.03-80.62,79.44-2.52-14.22.08-49.62-3.22-64.46,13.83-8.67,22.28-12.54,42.44-35.65Z"/>
  <path class="cls-3" d="m74.85,431.49c111.65-15.78,197.17,19.1,204.08,27.58,11.66,23.49,8.12,60.34,7.85,67.32-45.56-24.98-87.6-26.16-128.53-27.38-13.35-.4-11.51-.3-29.46-1.69-14.76-17.49-42.77-46.78-53.94-65.84Z"/>
</svg>