<?xml version="1.0" encoding="UTF-8"?>
<svg id="Layer_1" data-name="Layer 1" xmlns="http://www.w3.org/2000/svg" viewBox="0 0 950 950">
  <defs>
    <style>
      .cls-1, .cls-2 {
        fill: #d0a175;
      }

      .cls-2 {
        fill-rule: evenodd;
      }
    </style>
  </defs>
  <path id="Path_143" data-name="Path 143" class="cls-1" d="m229.44,468.76c-24.67,0-32.52-9.22-26.99-28.67l7.88-28h21.12l-8.05,28c-1.68,6.04-1.01,11.24,11.24,11.24s16.09-5.36,17.77-11.24l8.38-28h21.1l-8.55,28c-6,19.45-19.41,28.67-43.9,28.67Z"/>
  <path id="Path_144" data-name="Path 144" class="cls-1" d="m349.65,434.56c-3.92,12.43-15.31,20.99-28.33,21.29h-23.31l-4.02,12.91h-20.62l16.94-55.83h44.6c12.91,0,18.77,9.05,14.75,21.63Zm-20.96,0c1.17-3.86-1.34-3.86-3.52-3.86h-19.28l-2.35,7.71h19.28c2.67.5,5.27-1.2,5.87-3.85h0Z"/>
  <path id="Path_145" data-name="Path 145" class="cls-1" d="m380.17,429.02l-1.68,5.2h38.73l-4.53,13.58h-38.59l-1.68,5.2h38.59l-5.36,15.76h-59.35l18.11-55.83h60.02l-5.54,16.09h-38.73Z"/>
  <path id="Path_146" data-name="Path 146" class="cls-1" d="m476.23,453l4.19,15.93h-24.67l-3.16-12.91h-12.24l-4.5,12.91h-20.79l19.09-55.83h44.6c12.91,0,18.44,9.05,13.92,21.63-2.99,7.94-8.86,14.46-16.44,18.28Zm-29.84-14.59h19.28c2.71.46,5.32-1.21,6.04-3.86,1.34-3.86-1.17-3.86-3.35-3.86h-19.28l-2.68,7.72Z"/>
  <path id="Path_147" data-name="Path 147" class="cls-1" d="m571.29,458.7h-24.12l-7.71,10.06h-23.16l44.79-56.67h31.63l1.85,56.67h-23.13l-.15-10.06Zm0-14.42v-17.44l-13.25,17.43h13.25Z"/>
  <path id="Path_148" data-name="Path 148" class="cls-1" d="m622.6,468.76h-21.12l22.13-56.67h21.29l-22.3,56.67Z"/>
  <path id="Path_149" data-name="Path 149" class="cls-1" d="m694.02,452.66l3.35,16.09h-24.98l-2.53-13.08h-12.39l-5.36,13.08h-21.12l22.63-56.66h45.27c13.08,0,18.28,9.22,12.91,21.96-3.41,8.19-9.74,14.83-17.77,18.61Zm-29.34-14.75h19.61c2.78.44,5.48-1.19,6.37-3.86,1.68-3.86-1.01-3.86-3.16-3.86h-19.61l-3.21,7.72Z"/>
  <path id="Path_150" data-name="Path 150" class="cls-1" d="m832.93,428.47l-1.68,5.2h38.73l-4.53,13.58h-38.59l-1.68,5.2h38.59l-5.36,15.76h-59.35l18.14-55.61h59.86l-5.4,15.87h-38.73Z"/>
  <path id="Path_151" data-name="Path 151" class="cls-1" d="m905.6,468.21h-21.12l21.69-55.61h21.19l-21.76,55.61Z"/>
  <path id="Path_152" data-name="Path 152" class="cls-1" d="m944.87,412.6h-58.3l-5.27,15.87h57.21l6.36-15.87Z"/>
  <path id="Path_153" data-name="Path 153" class="cls-1" d="m776.62,439.55c-1.68,5.87-5.53,11.24-17.77,11.24h-.43l-6.33,16.92h1.06c24.89,0,38.42-8.7,44.45-28.15l8.48-26.95h-21.19l-8.28,26.94Z"/>
  <path id="Path_154" data-name="Path 154" class="cls-1" d="m758.41,450.74h-4.24l-6.33,16.95h4.24l6.33-16.95Z"/>
  <path id="Path_155" data-name="Path 155" class="cls-2" d="m49.96,494.16v-1.58h38.72l1.56-19.5h9.17l5.06,19.5h21.76c1.41-.04,2.81.17,4.14.63.86.32,1.62.85,2.21,1.55.67.84,1.02,1.89,1,2.97.03,1.07-.3,2.12-.94,2.98-.57.72-1.34,1.27-2.2,1.58-1.4.46-2.86.66-4.33.6h-24.58l-16.71,18.19h-9.61l9.98-18.18h-43.4c-9.34-.68-18.48,2.98-24.77,9.92-5.74,7.48-10.08,15.94-12.8,24.97l135.47.12h0c8.6.38,16.9-3.19,22.54-9.69,5.74-7.4,9.84-15.95,12.02-25.06h0l5.41-18.18h0c2.1-7.15-.45-14.85-6.4-19.34-6.32-4.92-14.03-7.7-22.03-7.95h-66.34c-1.68.08-3.37-.13-4.98-.63-.85-.3-1.59-.84-2.14-1.56-.58-.82-.88-1.8-.85-2.8-.02-1,.27-1.98.83-2.82.53-.74,1.25-1.32,2.08-1.68,1.61-.63,3.33-.92,5.06-.85h75.74c9.31.68,18.42-2.98,24.67-9.91,5.7-7.49,9.99-15.95,12.65-24.97h-109.85c-23.57-.06-44.62,14.77-52.51,36.98h0l-2.53,7.18c-3.2,7.93-3.45,16.75-.7,24.84,1.27,3.25,3.49,6.05,6.37,8.02,3.36,2.13,7.28,3.2,11.25,3.07v.11c0,.11-.01.54-.01,1.47Z"/>
</svg>